REM DIRINDEX 1\2\3,1\2\4,1\2\5,1\2\6
REM DIRNAME cjc157,folder01,folder02,folder03,folder04,folder05
TITLE ""
FILE "096 096.mp3" MP3
  TRACK 01 AUDIO
    TITLE "0:"
    INDEX 01 00:00:00
  TRACK 02 AUDIO
    TITLE "3:cjc157_3622"
    INDEX 01 00:00:09
  TRACK 03 AUDIO
    TITLE "0:"
    INDEX 01 00:01:38
  TRACK 04 AUDIO
    TITLE "4:cjc157_3623"
    INDEX 01 00:02:08
  TRACK 05 AUDIO
    TITLE "0:"
    INDEX 01 00:03:29
  TRACK 06 AUDIO
    TITLE "5:cjc157_3624"
    INDEX 01 00:03:72
  TRACK 07 AUDIO
    TITLE "0:"
    INDEX 01 00:06:39
  TRACK 08 AUDIO
    TITLE "5:cjc157_3625"
    INDEX 01 00:07:11
  TRACK 09 AUDIO
    TITLE "0:"
    INDEX 01 00:09:36
  TRACK 10 AUDIO
    TITLE "3:cjc157_3626"
    INDEX 01 00:10:06
  TRACK 11 AUDIO
    TITLE "0:"
    INDEX 01 00:11:09
  TRACK 12 AUDIO
    TITLE "4:cjc157_3627"
    INDEX 01 00:11:54
  TRACK 13 AUDIO
    TITLE "0:"
    INDEX 01 00:12:60
  TRACK 14 AUDIO
    TITLE "5:cjc157_3628"
    INDEX 01 00:13:33
  TRACK 15 AUDIO
    TITLE "0:"
    INDEX 01 00:16:22
  TRACK 16 AUDIO
    TITLE "5:cjc157_3629"
    INDEX 01 00:16:67
  TRACK 17 AUDIO
    TITLE "0:"
    INDEX 01 00:18:68
  TRACK 18 AUDIO
    TITLE "3:cjc157_3630"
    INDEX 01 00:19:32
  TRACK 19 AUDIO
    TITLE "0:"
    INDEX 01 00:20:37
  TRACK 20 AUDIO
    TITLE "4:cjc157_3631"
    INDEX 01 00:21:08
  TRACK 21 AUDIO
    TITLE "0:"
    INDEX 01 00:22:19
  TRACK 22 AUDIO
    TITLE "5:cjc157_3632"
    INDEX 01 00:22:64
  TRACK 23 AUDIO
    TITLE "0:"
    INDEX 01 00:24:33
  TRACK 24 AUDIO
    TITLE "3:cjc157_3633"
    INDEX 01 00:25:07
  TRACK 25 AUDIO
    TITLE "0:"
    INDEX 01 00:26:42
  TRACK 26 AUDIO
    TITLE "4:cjc157_3634"
    INDEX 01 00:27:10
  TRACK 27 AUDIO
    TITLE "0:"
    INDEX 01 00:28:23
  TRACK 28 AUDIO
    TITLE "5:cjc157_3635"
    INDEX 01 00:28:72
  TRACK 29 AUDIO
    TITLE "0:"
    INDEX 01 00:31:41
  TRACK 30 AUDIO
    TITLE "3:cjc157_3636"
    INDEX 01 00:32:13
  TRACK 31 AUDIO
    TITLE "0:"
    INDEX 01 00:33:38
  TRACK 32 AUDIO
    TITLE "4:cjc157_3637"
    INDEX 01 00:34:12
  TRACK 33 AUDIO
    TITLE "0:"
    INDEX 01 00:35:19
  TRACK 34 AUDIO
    TITLE "5:cjc157_3638"
    INDEX 01 00:35:64
  TRACK 35 AUDIO
    TITLE "0:"
    INDEX 01 00:38:10
  TRACK 36 AUDIO
    TITLE "3:cjc157_3639"
    INDEX 01 00:38:53
  TRACK 37 AUDIO
    TITLE "0:"
    INDEX 01 00:39:68
  TRACK 38 AUDIO
    TITLE "4:cjc157_3640"
    INDEX 01 00:40:40
  TRACK 39 AUDIO
    TITLE "0:"
    INDEX 01 00:41:53
  TRACK 40 AUDIO
    TITLE "5:cjc157_3641"
    INDEX 01 00:42:21
  TRACK 41 AUDIO
    TITLE "0:"
    INDEX 01 00:44:34
  TRACK 42 AUDIO
    TITLE "5:cjc157_3642"
    INDEX 01 00:45:02
  TRACK 43 AUDIO
    TITLE "0:"
    INDEX 01 00:46:17
  TRACK 44 AUDIO
    TITLE "3:cjc157_3643"
    INDEX 01 00:46:62
  TRACK 45 AUDIO
    TITLE "0:"
    INDEX 01 00:48:08
  TRACK 46 AUDIO
    TITLE "4:cjc157_3644"
    INDEX 01 00:48:53
  TRACK 47 AUDIO
    TITLE "0:"
    INDEX 01 00:49:70
  TRACK 48 AUDIO
    TITLE "5:cjc157_3645"
    INDEX 01 00:50:41
  TRACK 49 AUDIO
    TITLE "0:"
    INDEX 01 00:53:57
  TRACK 50 AUDIO
    TITLE "3:cjc157_3646"
    INDEX 01 00:54:29
  TRACK 51 AUDIO
    TITLE "0:"
    INDEX 01 00:55:71
  TRACK 52 AUDIO
    TITLE "4:cjc157_3647"
    INDEX 01 00:56:41
  TRACK 53 AUDIO
    TITLE "0:"
    INDEX 01 00:57:70
  TRACK 54 AUDIO
    TITLE "5:cjc157_3648"
    INDEX 01 00:58:42
  TRACK 55 AUDIO
    TITLE "0:"
    INDEX 01 01:00:49
  TRACK 56 AUDIO
    TITLE "3:cjc157_3649"
    INDEX 01 01:01:19
  TRACK 57 AUDIO
    TITLE "0:"
    INDEX 01 01:02:38
  TRACK 58 AUDIO
    TITLE "4:cjc157_3650"
    INDEX 01 01:03:06
  TRACK 59 AUDIO
    TITLE "0:"
    INDEX 01 01:04:33
  TRACK 60 AUDIO
    TITLE "5:cjc157_3651"
    INDEX 01 01:05:03
  TRACK 61 AUDIO
    TITLE "0:"
    INDEX 01 01:07:41
  TRACK 62 AUDIO
    TITLE "3:cjc157_3652"
    INDEX 01 01:08:13
  TRACK 63 AUDIO
    TITLE "0:"
    INDEX 01 01:09:46
  TRACK 64 AUDIO
    TITLE "4:cjc157_3653"
    INDEX 01 01:10:20
  TRACK 65 AUDIO
    TITLE "0:"
    INDEX 01 01:11:54
  TRACK 66 AUDIO
    TITLE "5:cjc157_3654"
    INDEX 01 01:12:32
  TRACK 67 AUDIO
    TITLE "0:"
    INDEX 01 01:14:59
  TRACK 68 AUDIO
    TITLE "5:cjc157_3655"
    INDEX 01 01:15:33
  TRACK 69 AUDIO
    TITLE "0:"
    INDEX 01 01:17:26
